<?xml version="1.0" encoding="utf-8"?>
<!-- Generator: Adobe Illustrator 21.1.0, SVG Export Plug-In . SVG Version: 6.00 Build 0)  -->
<svg version="1.1" baseProfile="tiny" id="Layer_1" xmlns="http://www.w3.org/2000/svg" xmlns:xlink="http://www.w3.org/1999/xlink"
	 x="0px" y="0px" viewBox="0 0 90.7 84.6" xml:space="preserve">
<g>
	<path fill="#070606" d="M90.4,34.9c-1-6-5.5-10.2-11-10.6c-9.9-0.8-18.4,4.8-28,6.6c-0.8,0.2-1.8-1.6-2.7-2.6
		c4.4-3.6,3.8-10.6-1.3-13.6c-0.4-0.4-0.2-4.5,0-4.7c0.4-0.4,3.7,0.3,4.2-0.1c0.5-0.4,0.4-4.6,0.1-5.1c-0.3-0.4-4,0-4.2-0.2
		c-0.2-0.3,0.1-4.1-0.2-4.4C46.9,0,45.9,0,45.4,0c-0.6,0-1.6,0-1.8,0.2c-0.3,0.3,0,4.1-0.2,4.4c-0.2,0.3-3.9-0.2-4.2,0.2
		c-0.3,0.4-0.4,4.6,0.1,5.1c0.5,0.4,3.7-0.2,4.2,0.1c0.2,0.2,0.3,4.2,0,4.7c-5.1,3-5.7,10.1-1.3,13.6c-0.9,1-2,2.7-2.7,2.6
		c-9.6-1.8-18.1-7.5-28-6.6c-5.5,0.5-10,4.6-11,10.6c-1.7,10.8,5.5,19.1,9,28.2c1.1,2.9,2.1,6.8,1.9,10.1H45v0c0,0,0.1,0,0.4,0
		c0.3,0,0.4,0,0.4,0v0h33.8c-0.2-3.3,0.8-7.2,1.9-10.1C84.9,54,92.2,45.7,90.4,34.9 M41.3,58.8c-0.9,5.4-3.7,8.8-6,8.9
		c-1.5,0-2.8-0.6-3.9-1.7c-1.5-1.4-2.8-3.8-2.4-5.2c0.3-0.5,4.5,0.2,4.8-0.2c0.3-0.4-0.5-3.9-1-4.3c-0.5-0.4-4.2,0.2-4.7-0.3
		c-0.5-0.4-1-4.7-1.5-5c0,0-4-0.6-4.2,0c-0.3,0.6,1.3,4.2,1.1,4.8c-0.3,0.6-5.5-0.5-5.6,0.1c-0.1,0.6,0.3,3.8,0.8,4.2
		c0.5,0.5,5.4,0.5,5.4,0.5c1,0.8,1.3,2.5,1.3,4.2c0,2.2-1.6,3.3-4.1,2.6c-4.7-1.4-10.6-12.4-14.1-20C4.5,41.7,3,32.6,9.7,29.8
		c4.1-1.7,8.4-0.7,12.8,0.7c4.6,1.5,10.7,3.5,14.3,5.8c0.9,0.6-1.1,0.1,2.1,7.7C40.4,47.5,41.9,55,41.3,58.8 M69.6,67.3
		c-2.5,0.8-4.1-0.4-4.1-2.6c0-1.7,0.3-3.4,1.3-4.2c0,0,4.9,0,5.4-0.5c0.5-0.5,0.9-3.6,0.8-4.2c-0.1-0.6-5.3,0.5-5.6-0.1
		c-0.3-0.6,1.4-4.2,1.1-4.8c-0.3-0.6-4.2,0-4.2,0c-0.5,0.3-1,4.5-1.5,5c-0.5,0.4-4.2-0.2-4.7,0.3c-0.5,0.5-1.3,3.9-1,4.3
		c0.3,0.4,4.4-0.2,4.8,0.2c0.4,1.4-0.9,3.8-2.4,5.2c-1.1,1-2.3,1.7-3.9,1.7c-2.3,0-5.1-3.5-6-8.9C48.8,55,50.3,47.5,51.8,44
		c3.2-7.6,1.3-7.1,2.1-7.7c3.6-2.4,9.7-4.4,14.3-5.8c4.4-1.4,8.7-2.4,12.8-0.7c6.7,2.7,5.2,11.9,2.6,17.5
		C80.2,54.9,74.3,65.9,69.6,67.3"/>
	<polygon fill="#070606" points="45.7,78.2 45,78.2 10.4,78.2 10.4,84.6 45,84.6 45.7,84.6 80.3,84.6 80.3,78.2 	"/>
</g>
</svg>
